<?xml version="1.0" encoding="UTF-8" standalone="no"?>
<!-- Generator: Adobe Illustrator 15.0.0, SVG Export Plug-In . SVG Version: 6.00 Build 0)  -->

<svg
   xmlns:dc="http://purl.org/dc/elements/1.1/"
   xmlns:cc="http://creativecommons.org/ns#"
   xmlns:rdf="http://www.w3.org/1999/02/22-rdf-syntax-ns#"
   xmlns:svg="http://www.w3.org/2000/svg"
   xmlns="http://www.w3.org/2000/svg"
   xmlns:xlink="http://www.w3.org/1999/xlink"
   xmlns:sodipodi="http://sodipodi.sourceforge.net/DTD/sodipodi-0.dtd"
   xmlns:inkscape="http://www.inkscape.org/namespaces/inkscape"
   version="1.1"
   id="Layer_1"
   x="0px"
   y="0px"
   width="48"
   height="48"
   viewBox="0 0 48 48"
   enable-background="new 0 0 300 300"
   xml:space="preserve"
   inkscape:version="0.48.4 r9939"
   sodipodi:docname="trollface.svg"><metadata
     id="metadata3375"><rdf:RDF><cc:Work
         rdf:about=""><dc:format>image/svg+xml</dc:format><dc:type
           rdf:resource="http://purl.org/dc/dcmitype/StillImage" /><dc:title></dc:title></cc:Work></rdf:RDF></metadata><defs
     id="defs3373"><linearGradient
       inkscape:collect="always"
       xlink:href="#linearGradient3930"
       id="linearGradient3096"
       gradientUnits="userSpaceOnUse"
       x1="-40.033958"
       y1="-95.216179"
       x2="-197.24011"
       y2="-13.533068" /><linearGradient
       id="linearGradient3930"
       inkscape:collect="always"><stop
         id="stop3932"
         offset="0"
         style="stop-color:#f9f9f9;stop-opacity:1" /><stop
         id="stop3934"
         offset="1"
         style="stop-color:#000000;stop-opacity:0" /></linearGradient><linearGradient
       inkscape:collect="always"
       xlink:href="#linearGradient3961"
       id="linearGradient3098"
       gradientUnits="userSpaceOnUse"
       x1="-160.80475"
       y1="-33.44944"
       x2="-75.48468"
       y2="-82.573112" /><linearGradient
       inkscape:collect="always"
       id="linearGradient3961"><stop
         style="stop-color:#ffffff;stop-opacity:1"
         offset="0"
         id="stop3963" /><stop
         style="stop-color:#ffffff;stop-opacity:0"
         offset="1"
         id="stop3965" /></linearGradient><clipPath
       clipPathUnits="userSpaceOnUse"
       id="clipPath4011"><path
         sodipodi:type="arc"
         style="opacity:0.6;color:#000000;fill:#ffffff;fill-opacity:1;fill-rule:nonzero;stroke:none;stroke-width:0.1;marker:none;visibility:visible;display:inline;overflow:visible;enable-background:accumulate"
         id="path4013"
         sodipodi:cx="5.9035525"
         sodipodi:cy="2.8642485"
         sodipodi:rx="0.56798029"
         sodipodi:ry="0.2753844"
         d="m 6.4715328,2.8642485 a 0.56798029,0.2753844 0 1 1 -1.1359606,0 0.56798029,0.2753844 0 1 1 1.1359606,0 z"
         transform="matrix(0.99612214,0.08798124,-0.08798124,0.99612214,0.5424564,-0.94487307)" /></clipPath><clipPath
       clipPathUnits="userSpaceOnUse"
       id="clipPath4033"><path
         sodipodi:type="arc"
         style="opacity:0.6;color:#000000;fill:#ffffff;fill-opacity:1;fill-rule:nonzero;stroke:none;stroke-width:0.1;marker:none;visibility:visible;display:inline;overflow:visible;enable-background:accumulate"
         id="path4035"
         sodipodi:cx="4.6471114"
         sodipodi:cy="2.158576"
         sodipodi:rx="0.2753844"
         sodipodi:ry="0.12048067"
         d="m 4.9224958,2.158576 a 0.2753844,0.12048067 0 1 1 -0.5507688,0 0.2753844,0.12048067 0 1 1 0.5507688,0 z"
         transform="matrix(0.99151537,0.12998949,-0.12998949,0.99151537,0.99268535,-0.50978123)" /></clipPath></defs><sodipodi:namedview
     pagecolor="#ffffff"
     bordercolor="#666666"
     borderopacity="1"
     objecttolerance="10"
     gridtolerance="10"
     guidetolerance="10"
     inkscape:pageopacity="0"
     inkscape:pageshadow="2"
     inkscape:window-width="958"
     inkscape:window-height="1176"
     id="namedview3371"
     showgrid="false"
     inkscape:zoom="8.9001173"
     inkscape:cx="18.866247"
     inkscape:cy="41.039644"
     inkscape:window-x="2880"
     inkscape:window-y="0"
     inkscape:window-maximized="0"
     inkscape:current-layer="Layer_1" /><g
     id="kB8ati.tif"
     transform="matrix(0.2130408,0,0,0.2130408,-5.1536796,-6.6862252)"><g
       id="g3269"><g
         id="g3271"><path
           clip-rule="evenodd"
           d="m 197.5,107 c -7.642,-11.015 -25.318,-14.924 -43,-14 -0.082,0.004 -5.007,2.705 -3,0 19.328,-3.285 39.971,0.664 46,14 z"
           id="path3277"
           inkscape:connector-curvature="0"
           style="fill-rule:evenodd" /><path
           clip-rule="evenodd"
           d="m 127.5,98 c -11.551,-3.88 -32.178,-5.675 -33,9 -3.024,-1.513 0.829,-4.389 0,-7 3.774,-3.222 9.664,-5.833 17,-6 5.41,-0.124 13.041,0.678 16,4 z"
           id="path3279"
           inkscape:connector-curvature="0"
           style="fill-rule:evenodd" /><path
           clip-rule="evenodd"
           d="m 154.5,94 c 4.477,0.387 -2.615,4.065 -3,6 -0.575,1.758 1.209,5.875 -1,6 0,-2.333 0,-4.667 0,-7 1.387,-1.614 2.834,-3.167 4,-5 z"
           id="path3281"
           inkscape:connector-curvature="0"
           style="fill-rule:evenodd" /><path
           clip-rule="evenodd"
           d="m 121.5,101 c 1.49,-3.295 2.823,1.7 4,2 0,3 0,6 0,9 -2.347,-2.653 0.421,-10.421 -4,-11 z"
           id="path3283"
           inkscape:connector-curvature="0"
           style="fill-rule:evenodd" /><path
           clip-rule="evenodd"
           d="m 196.5,118 c -3.886,4.141 -8.941,0.264 -14,0 -11.319,-0.59 -20.41,2.784 -28,7 -2.131,-2.536 -6.258,-3.075 -7,-7 4.467,-16.282 45.154,-18.756 49,0 z m -43,1 c 5.127,2.142 8.631,-5.137 16,-4 -0.914,-1.753 -0.344,-4.99 -2,-6 -5.204,2.299 -15.279,4.489 -14,10 z m 38,-4 c -1.064,-0.717 -4.606,-3.905 -6,-1 1.282,0.5 5.979,2.531 6,1 z"
           id="path3285"
           inkscape:connector-curvature="0"
           style="fill-rule:evenodd" /><path
           clip-rule="evenodd"
           d="m 167.5,109 c 1.656,1.01 1.086,4.247 2,6 -7.369,-1.137 -10.873,6.142 -16,4 -1.279,-5.511 8.796,-7.701 14,-10 z"
           id="path3287"
           inkscape:connector-curvature="0"
           style="fill:#ffffff;fill-rule:evenodd" /><path
           clip-rule="evenodd"
           d="m 134.5,118 c -0.237,3.763 -4.101,3.899 -7,5 0,3.333 0,6.667 0,10 -2.5,2.833 -6.802,3.865 -9,7 1.222,4.778 4.772,7.228 8,10 3.872,0.947 4.118,-3.897 7,-1 -2.847,11.402 -16.92,0.873 -18,-5 -1.481,1.581 -5.168,3.47 -5,-1 -4.039,1.628 -7.888,3.445 -12,5 8.966,-5.034 16.081,-11.919 25,-17 0,-2.333 0,-4.667 0,-7 -5.552,-6.448 -21.224,-2.776 -29,-7 2.493,-12.369 29.248,-7.405 32,1 3.087,0.163 5.653,-2.363 8,0 z m -24,-4 c -2.714,0.619 -7.936,-1.27 -9,1 2.714,-0.619 7.936,1.27 9,-1 z"
           id="path3289"
           inkscape:connector-curvature="0"
           style="fill-rule:evenodd" /><path
           clip-rule="evenodd"
           d="m 101.5,115 c 1.064,-2.27 6.286,-0.381 9,-1 -1.064,2.27 -6.286,0.381 -9,1 z"
           id="path3291"
           inkscape:connector-curvature="0"
           style="fill:#ffffff;fill-rule:evenodd" /><path
           clip-rule="evenodd"
           d="m 198.5,115 c 2.087,-2.981 5.26,1.328 9,0 0.076,3.409 -3.705,2.961 -7,3 0.31,-1.357 2.504,-0.83 4,-1 -1.232,-1.434 -3.438,-1.895 -6,-2 z"
           id="path3293"
           inkscape:connector-curvature="0"
           style="fill-rule:evenodd" /><path
           clip-rule="evenodd"
           d="m 227.5,154 c 2.497,-4.347 6.969,-1.505 10,-6 5.393,-7.998 1.661,-23.248 -3,-29 -1.78,-0.553 -4.153,-0.514 -5,-2 -5,0 -10,0 -15,0 2.366,-2.3 8.976,-0.358 13,-1 7.848,-0.181 9.482,5.851 13,10 0.087,8.42 0.435,17.102 -2,23 -3.094,2.24 -6.51,4.156 -11,5 z"
           id="path3295"
           inkscape:connector-curvature="0"
           style="fill-rule:evenodd" /><path
           clip-rule="evenodd"
           d="m 198.5,120 c -0.28,-1.59 5.401,-1.401 3,1 0.385,-0.384 -3.013,-1.07 -3,-1 z"
           id="path3297"
           inkscape:connector-curvature="0"
           style="fill-rule:evenodd" /><path
           clip-rule="evenodd"
           d="m 174.5,120 c 4.785,-0.15 7.053,6.047 13,7 11.508,1.843 23.432,-10.484 36,-7 10.105,2.802 16.737,19.666 5,29 -2.22,-5.885 2.564,-6.955 2,-13 -0.977,-10.454 -8.523,-12.958 -17,-12 -8.341,0.943 -15.164,10.293 -29,7 -3.572,-0.851 -10.358,-4.755 -10,-11 z"
           id="path3299"
           inkscape:connector-curvature="0"
           style="fill-rule:evenodd" /><path
           clip-rule="evenodd"
           d="m 77.5,121 c 2.781,2.524 -5.194,2.749 -6,5 -0.492,7.594 -2.261,13.62 5,15 -7.643,2.678 -7.294,-8.402 -6,-16 1.767,-1.899 4.962,-2.371 7,-4 z"
           id="path3301"
           inkscape:connector-curvature="0"
           style="fill-rule:evenodd" /><path
           clip-rule="evenodd"
           d="m 98.5,131 c 3.124,-0.226 5.281,-4.425 8,-2 0.185,6.852 -7.43,5.904 -14,6 -0.689,-10.421 -14.036,-3.436 -18,-4 1.675,-10.733 20.956,-5.592 24,0 z"
           id="path3303"
           inkscape:connector-curvature="0"
           style="fill-rule:evenodd" /><path
           clip-rule="evenodd"
           d="m 162.5,138 c 1.374,6.983 -1.651,13.969 -7,11 -1.203,-4.869 4.623,-2.71 3,-8 -0.784,-3.882 -9.779,0.446 -9,-5 3.941,-2.428 10.94,-0.645 13,2 z"
           id="path3305"
           inkscape:connector-curvature="0"
           style="fill-rule:evenodd" /><path
           clip-rule="evenodd"
           d="m 163.5,135 c 2.558,-0.044 1.22,0.743 1,2 1.697,4.97 14.521,-1.188 16,4 -3.918,-2.415 -12.982,0.316 -17,-2 0,-1.333 0,-2.667 0,-4 z"
           id="path3307"
           inkscape:connector-curvature="0"
           style="fill-rule:evenodd" /><path
           clip-rule="evenodd"
           d="m 212.5,136 c 5.797,10.08 -9.559,15.567 -18,18 1.675,-1.659 0.796,-5.871 1,-9 5.549,-3.118 12.01,-5.324 17,-9 z"
           id="path3309"
           inkscape:connector-curvature="0"
           style="fill:#ffffff;fill-rule:evenodd" /><path
           clip-rule="evenodd"
           d="m 153.5,143 c 0.318,2.319 -0.16,3.839 -1,5 -3.688,-3.869 -9.688,0.418 -14,-2 0.327,-5.283 11,-4.62 15,-3 z"
           id="path3313"
           inkscape:connector-curvature="0"
           style="fill-rule:evenodd" /><path
           clip-rule="evenodd"
           d="m 191.5,147 c -0.342,12.658 -14.357,11.643 -23,16 -0.839,-2.828 -1.161,-6.172 -2,-9 8.5,-2.167 16.263,-5.071 25,-7 z"
           id="path3317"
           inkscape:connector-curvature="0"
           style="fill:#ffffff;fill-rule:evenodd" /><path
           clip-rule="evenodd"
           d="m 89.5,151 c 4.237,1.716 -0.59,7.71 1,13 -7.169,-1.304 -1.706,-8.301 -1,-13 z"
           id="path3319"
           inkscape:connector-curvature="0"
           style="fill:#ffffff;fill-rule:evenodd" /><path
           clip-rule="evenodd"
           d="m 205.5,154 c 3.542,0.604 -1.446,4.858 -3,7 -1.871,2.579 -3.859,7.229 -7,7 -4.623,-8.854 5.953,-10.544 10,-14 z"
           id="path3321"
           inkscape:connector-curvature="0"
           style="fill:#ffffff;fill-rule:evenodd" /><path
           clip-rule="evenodd"
           d="m 95.5,155 c 2.503,0.83 3.927,2.739 7,3 1.129,3.541 -4.203,5.69 -1,8 -0.92,2.726 -3.126,-1.396 -6,0 -0.696,-3.671 -1.726,-7.603 0,-11 z"
           id="path3323"
           inkscape:connector-curvature="0"
           style="fill:#ffffff;fill-rule:evenodd" /><path
           clip-rule="evenodd"
           d="m 160.5,156 c 4.269,0.064 2.335,6.332 4,9 -7.507,0.827 -12.614,4.052 -22,3 0,-2.667 0,-5.333 0,-8 5.63,-1.703 12.505,-2.161 18,-4 z"
           id="path3325"
           inkscape:connector-curvature="0"
           style="fill:#ffffff;fill-rule:evenodd" /><path
           clip-rule="evenodd"
           d="m 106.5,159 c 4.283,1.384 9.122,2.212 15,2 -1.378,1.289 -0.99,4.344 -1,7 -6.412,0.745 -10.166,-1.167 -16,-1 0.89,-2.443 2.331,-4.336 2,-8 z"
           id="path3327"
           inkscape:connector-curvature="0"
           style="fill:#ffffff;fill-rule:evenodd" /><path
           clip-rule="evenodd"
           d="m 138.5,160 c 0,2.667 0,5.333 0,8 -4.667,0 -9.333,0 -14,0 -0.802,-3.469 1.489,-3.844 1,-7 5.429,0.763 8.1,-1.233 13,-1 z"
           id="path3329"
           inkscape:connector-curvature="0"
           style="fill:#ffffff;fill-rule:evenodd" /><path
           clip-rule="evenodd"
           d="m 189.5,162 c 2.244,2.09 -0.338,9.004 4,9 -5.018,5.316 -12.095,8.571 -18,13 -2.036,-4.297 -5.489,-7.178 -5,-14 7.042,-1.957 13.812,-4.188 19,-8 z"
           id="path3331"
           inkscape:connector-curvature="0"
           style="fill:#ffffff;fill-rule:evenodd" /><path
           clip-rule="evenodd"
           d="m 165.5,171 c 0.881,5.785 3.664,9.67 5,15 -7.53,2.137 -14.647,4.686 -24,5 1.467,-2.707 -0.905,-8.681 0,-14 7.179,-1.154 13.577,-3.089 19,-6 z"
           id="path3333"
           inkscape:connector-curvature="0"
           style="fill:#ffffff;fill-rule:evenodd" /><path
           clip-rule="evenodd"
           d="m 143.5,190 c -2.14,3.526 -9.896,1.437 -15,2 -0.535,-4.131 -1.465,-7.869 -2,-12 5.35,0.017 11.067,0.4 14,-2 4.96,0.04 -0.384,10.384 3,12 z"
           id="path3335"
           inkscape:connector-curvature="0"
           style="fill:#ffffff;fill-rule:evenodd" /><path
           clip-rule="evenodd"
           d="m 100.5,181 c 1.453,-2.964 3.9,1.317 7,0 -0.123,4.456 2.467,6.2 3,10 -3.156,0.489 -3.531,-1.802 -7,-1 2.137,-2.867 -1.445,-6.698 -3,-9 z"
           id="path3337"
           inkscape:connector-curvature="0"
           style="fill:#ffffff;fill-rule:evenodd" /><path
           clip-rule="evenodd"
           d="m 111.5,182 c 1.386,-2.28 6.96,-0.373 10,-1 2.152,2.182 1.121,7.546 3,10 -1.583,2.477 -6.996,0.408 -9,0 -0.894,-3.439 -2.433,-6.233 -4,-9 z"
           id="path3339"
           inkscape:connector-curvature="0"
           style="fill:#ffffff;fill-rule:evenodd" /><path
           clip-rule="evenodd"
           d="m 110.5,201 c 3.356,-2.311 10.983,-0.351 16,-1 5.667,0 11.333,0 17,0 -9.006,2.327 -22.329,0.338 -33,1 z"
           id="path3341"
           inkscape:connector-curvature="0"
           style="fill-rule:evenodd" /><g
           id="g4338"><path
             style="fill-rule:evenodd"
             inkscape:connector-curvature="0"
             id="path3343"
             d="m 142.5,74 c 16.333,0 32.667,0 49,0 16.485,-0.625 26.191,8.016 33,20 2.378,4.185 3.079,10.094 6,14 2.752,3.681 7.243,6.142 10,9 3.452,3.579 6.028,6 9,10 0,6.333 0,12.667 0,19 -0.333,0 -0.667,0 -1,0 -3.379,8.586 -11.633,13.946 -16,21 -3.267,5.276 -4.627,11.427 -9,16 -7.566,7.912 -20.921,16.894 -32,22 -6.117,2.819 -13.346,4.654 -20,8 -6.257,3.146 -12.11,7.194 -18,9 -10.929,3.351 -22.915,3.682 -33,8 -11.667,0 -23.333,0 -35,0 -7.047,-3.694 -17.804,-8.229 -20,-18 -2.901,-12.909 4.991,-36.45 2,-53 -1.26,-6.971 -6.222,-11.512 -9,-18 0,-6.333 0,-12.667 0,-19 3.528,-9.472 16.379,-9.621 14,-25 12.193,-18.807 42.291,-19.709 70,-23 z m 76,40 c 3.695,-0.638 9.962,1.295 12,-1 -8.571,-7.984 -10.372,-22.52 -20,-30 -5.303,-4.12 -14.065,-4.563 -24,-5 -20.214,-0.889 -41.484,0.763 -57,2 -5.728,0.457 -12.541,-0.55 -17,3 19.844,2.008 39.418,-5.307 57,-3 7.925,1.04 15.939,4.689 22,8 6.265,3.422 13.11,7.564 17,13 -10.567,-7.068 -22.729,-17.881 -41,-20 -10.907,-1.265 -24.288,2.21 -37,3 -8.63,0.536 -16.945,-1.427 -24,-1 -13.356,0.809 -24.061,9.375 -30,16 4.121,14.838 -11.339,15.562 -14,25 -4.089,14.502 5.636,21.276 8,30 4.766,17.584 -1.387,36.801 -1,57 4.119,8.59 12.85,14.632 24,16 21.445,2.631 38.979,-6.834 53,-9 3.029,-0.468 5.044,0.626 7,0 5.096,-1.632 11.557,-5.838 18,-9 13.369,-6.562 25.899,-10.913 37,-19 13.677,-9.963 16.615,-21.286 26,-33 -1.862,-0.956 -3.342,2.995 -4,0 26.914,-8.363 15.572,-46.908 -12,-43 z"
             clip-rule="evenodd" /></g><path
           clip-rule="evenodd"
           d="m 230.5,157 c 0.658,2.995 2.138,-0.956 4,0 -9.385,11.714 -12.323,23.037 -26,33 -11.101,8.087 -23.631,12.438 -37,19 -6.443,3.162 -12.904,7.368 -18,9 -1.956,0.626 -3.971,-0.468 -7,0 -14.021,2.166 -31.555,11.631 -53,9 -11.15,-1.368 -19.881,-7.41 -24,-16 -0.387,-20.199 5.766,-39.416 1,-57 -2.364,-8.724 -12.089,-15.498 -8,-30 2.661,-9.438 18.121,-10.162 14,-25 5.939,-6.625 16.644,-15.191 30,-16 7.055,-0.427 15.37,1.536 24,1 12.712,-0.79 26.093,-4.265 37,-3 18.271,2.119 30.433,12.932 41,20 -3.89,-5.436 -10.735,-9.578 -17,-13 -6.061,-3.311 -14.075,-6.96 -22,-8 -17.582,-2.307 -37.156,5.008 -57,3 4.459,-3.55 11.272,-2.543 17,-3 15.516,-1.237 36.786,-2.889 57,-2 9.935,0.437 18.697,0.88 24,5 9.628,7.48 11.429,22.016 20,30 -2.038,2.295 -8.305,0.362 -12,1 27.572,-3.908 38.914,34.637 12,43 z m 8,-8 c 2.435,-5.898 2.087,-14.58 2,-23 -3.518,-4.149 -5.152,-10.181 -13,-10 -4.024,0.642 -10.634,-1.3 -13,1 5,0 10,0 15,0 0.847,1.486 3.22,1.447 5,2 4.661,5.752 8.393,21.002 3,29 -3.031,4.495 -7.503,1.653 -10,6 4.49,-0.844 7.906,-2.76 11,-5 z m -172,-8 c -5.953,-9.991 1.623,-20.365 11,-24 6.492,-0.238 10.169,1.726 15,-1 -5.088,-1.027 -8.72,0.979 -17,0 -8.732,4.389 -15.352,14.149 -10,27 3.198,2.802 8.346,3.654 12,6 -3.022,-5.385 -8.027,-3.01 -11,-8 z m 35,-53 c 17.101,5.078 37.546,0.017 51,-1 19.695,-1.489 33.745,4.8 43,12 2.182,1.697 4.277,5.67 8,5 -11.05,-11.744 -29.78,-20.473 -53,-18 -10.176,1.084 -19.93,3.758 -33,3 -8.925,-0.518 -20.277,-5.359 -21,2 1.5,-1.167 2.445,-2.888 5,-3 z m 50,5 c -2.007,2.705 2.918,0.004 3,0 17.682,-0.924 35.358,2.985 43,14 -6.029,-13.336 -26.672,-17.285 -46,-14 z m -40,1 c -7.336,0.167 -13.226,2.778 -17,6 0.829,2.611 -3.024,5.487 0,7 0.822,-14.675 21.449,-12.88 33,-9 -2.959,-3.322 -10.59,-4.124 -16,-4 z m 39,5 c 0,2.333 0,4.667 0,7 2.209,-0.125 0.425,-4.242 1,-6 0.385,-1.935 7.477,-5.613 3,-6 -1.166,1.833 -2.613,3.386 -4,5 z m -25,13 c 0,-3 0,-6 0,-9 -1.177,-0.3 -2.51,-5.295 -4,-2 4.421,0.579 1.653,8.347 4,11 z m 22,6 c 0.742,3.925 4.869,4.464 7,7 7.59,-4.216 16.681,-7.59 28,-7 5.059,0.264 10.114,4.141 14,0 -3.846,-18.756 -44.533,-16.282 -49,0 z m -21,0 c -2.752,-8.405 -29.507,-13.369 -32,-1 7.776,4.224 23.448,0.552 29,7 0,2.333 0,4.667 0,7 -8.919,5.081 -16.034,11.966 -25,17 4.112,-1.555 7.961,-3.372 12,-5 -0.168,4.47 3.519,2.581 5,1 1.08,5.873 15.153,16.402 18,5 -2.882,-2.897 -3.128,1.947 -7,1 -3.228,-2.772 -6.778,-5.222 -8,-10 2.198,-3.135 6.5,-4.167 9,-7 0,-3.333 0,-6.667 0,-10 2.899,-1.101 6.763,-1.237 7,-5 -2.347,-2.363 -4.913,0.163 -8,0 z m 78,-1 c -1.496,0.17 -3.69,-0.357 -4,1 3.295,-0.039 7.076,0.409 7,-3 -3.74,1.328 -6.913,-2.981 -9,0 2.562,0.105 4.768,0.566 6,2 z m -3,4 c 2.401,-2.401 -3.28,-2.59 -3,-1 -0.013,-0.07 3.385,0.616 3,1 z m -17,10 c 13.836,3.293 20.659,-6.057 29,-7 8.477,-0.958 16.023,1.546 17,12 0.564,6.045 -4.22,7.115 -2,13 11.737,-9.334 5.105,-26.198 -5,-29 -12.568,-3.484 -24.492,8.843 -36,7 -5.947,-0.953 -8.215,-7.15 -13,-7 -0.358,6.245 6.428,10.149 10,11 z m -114,-6 c -1.294,7.598 -1.643,18.678 6,16 -7.261,-1.38 -5.492,-7.406 -5,-15 0.806,-2.251 8.781,-2.476 6,-5 -2.038,1.629 -5.233,2.101 -7,4 z m 4,6 c 3.964,0.564 17.311,-6.421 18,4 6.57,-0.096 14.185,0.852 14,-6 -2.719,-2.425 -4.876,1.774 -8,2 -3.044,-5.592 -22.325,-10.733 -24,0 z m 138,-1 c -3.554,6.422 -21.915,12.323 -38,17 -28.614,8.32 -67.875,18.586 -85,-3 -1.7,-2.634 -0.1,-8.566 -2,-11 -3.601,-1.471 -2.118,3.177 -3,5 -0.916,1.894 -2.428,3.299 -3,5 -4.322,12.861 -2.332,38.523 4,45 8.058,8.243 37.32,9.273 56,8 23.16,-1.579 39.792,-8.199 53,-19 11.062,-9.046 15.522,-21.922 23,-28 -1.934,-3.528 0.469,-4.472 1,-8 2.359,0.764 6.911,1.971 9,0 -0.611,-4.722 -7.65,-3.017 -10,-6 -0.961,-3.04 0.144,-8.144 -4,-8 -0.744,0.897 -0.382,1.883 -1,3 z m -63,6 c -0.779,5.446 8.216,1.118 9,5 1.623,5.29 -4.203,3.131 -3,8 5.349,2.969 8.374,-4.017 7,-11 -2.06,-2.645 -9.059,-4.428 -13,-2 z m 14,3 c 4.018,2.316 13.082,-0.415 17,2 -1.479,-5.188 -14.303,0.97 -16,-4 0.22,-1.257 1.558,-2.044 -1,-2 0,1.333 0,2.667 0,4 z m -25,7 c 4.312,2.418 10.312,-1.869 14,2 0.84,-1.161 1.318,-2.681 1,-5 -4,-1.62 -14.673,-2.283 -15,3 z m 6,59 c -22.738,2.246 -48.593,3.362 -57,-9 3.178,7.231 10.262,10.001 18,11 11.826,1.526 29.54,0.244 41,-1 21.224,-2.304 38.763,-15.496 52,-21 -14.031,3.474 -32.195,17.846 -54,20 z m -13,6 c -19.91,2.326 -44.065,3.346 -52,-8 -0.547,-1.453 1.168,-5.169 -1,-5 0,2 0,4 0,6 7.762,9.935 22.25,9.761 39,9 34.612,-1.572 72.158,-13.405 91,-28 -17.948,10.368 -47.287,22.528 -77,26 z m 12,-11 c -5.667,0 -11.333,0 -17,0 -5.017,0.649 -12.644,-1.311 -16,1 10.671,-0.662 23.994,1.327 33,-1 z"
           id="path3345"
           inkscape:connector-curvature="0"
           style="fill:#ffffff;fill-rule:evenodd" /><path
           clip-rule="evenodd"
           d="m 77.5,149 c -3.654,-2.346 -8.802,-3.198 -12,-6 -5.352,-12.851 1.268,-22.611 10,-27 8.28,0.979 11.912,-1.027 17,0 -4.831,2.726 -8.508,0.762 -15,1 -9.377,3.635 -16.953,14.009 -11,24 2.973,4.99 7.978,2.615 11,8 z"
           id="path3347"
           inkscape:connector-curvature="0"
           style="fill-rule:evenodd" /><path
           clip-rule="evenodd"
           d="m 96.5,91 c 0.723,-7.359 12.075,-2.518 21,-2 13.07,0.758 22.824,-1.916 33,-3 23.22,-2.473 41.95,6.256 53,18 -3.723,0.67 -5.818,-3.303 -8,-5 -9.255,-7.2 -23.305,-13.489 -43,-12 -13.454,1.017 -33.899,6.078 -51,1 -2.555,0.112 -3.5,1.833 -5,3 z"
           id="path3349"
           inkscape:connector-curvature="0"
           style="fill-rule:evenodd" /><path
           clip-rule="evenodd"
           d="m 185.5,114 c 1.394,-2.905 4.936,0.283 6,1 -0.021,1.531 -4.718,-0.5 -6,-1 z"
           id="path3351"
           inkscape:connector-curvature="0"
           style="fill:#ffffff;fill-rule:evenodd" /><path
           clip-rule="evenodd"
           d="m 85.5,151 c -2.468,-2.632 2.885,-5.794 0,0 l 0,0 z"
           id="path3353"
           inkscape:connector-curvature="0"
           style="fill:#ffffff;fill-rule:evenodd" /><path
           clip-rule="evenodd"
           d="m 84.5,176 c 1.918,-1.2 4.668,5.293 5,9 -2.602,-2.064 -2.868,-6.465 -5,-9 z"
           id="path3355"
           inkscape:connector-curvature="0"
           style="fill:#ffffff;fill-rule:evenodd" /><path
           clip-rule="evenodd"
           d="m 90.5,186 c 0.19,-1.135 1.003,-0.556 1,0 1.615,0.282 1.722,-0.945 3,-1 -0.167,-2.833 -1.833,-4.167 -2,-7 4.312,1.688 5.303,6.697 7,11 -3.216,-0.783 -6.628,-1.371 -9,-3 z"
           id="path3357"
           inkscape:connector-curvature="0"
           style="fill:#ffffff;fill-rule:evenodd" /><path
           clip-rule="evenodd"
           d="m 198.5,185 c -13.237,5.504 -30.776,18.696 -52,21 -11.46,1.244 -29.174,2.526 -41,1 -7.738,-0.999 -14.822,-3.769 -18,-11 8.407,12.362 34.262,11.246 57,9 21.805,-2.154 39.969,-16.526 54,-20 z"
           id="path3359"
           inkscape:connector-curvature="0"
           style="fill-rule:evenodd" /><path
           clip-rule="evenodd"
           d="m 208.5,185 c -18.842,14.595 -56.388,26.428 -91,28 -16.75,0.761 -31.238,0.935 -39,-9 0,-2 0,-4 0,-6 2.168,-0.169 0.453,3.547 1,5 7.935,11.346 32.09,10.326 52,8 29.713,-3.472 59.052,-15.632 77,-26 z"
           id="path3361"
           inkscape:connector-curvature="0"
           style="fill-rule:evenodd" /><path
           clip-rule="evenodd"
           d="m 213.5,127 c 4.144,-0.144 3.039,4.96 4,8 2.35,2.983 9.389,1.278 10,6 -2.089,1.971 -6.641,0.764 -9,0 -0.531,3.528 -2.934,4.472 -1,8 -7.478,6.078 -11.938,18.954 -23,28 -13.208,10.801 -29.84,17.421 -53,19 -18.68,1.273 -47.942,0.243 -56,-8 -6.332,-6.477 -8.322,-32.139 -4,-45 0.572,-1.701 2.084,-3.106 3,-5 0.882,-1.823 -0.601,-6.471 3,-5 1.9,2.434 0.3,8.366 2,11 17.125,21.586 56.386,11.32 85,3 16.085,-4.677 34.446,-10.578 38,-17 0.618,-1.117 0.256,-2.103 1,-3 z m -18,18 c -0.204,3.129 0.675,7.341 -1,9 8.441,-2.433 23.797,-7.92 18,-18 -4.99,3.676 -11.451,5.882 -17,9 z m -110,6 c 2.885,-5.794 -2.468,-2.632 0,0 l 0,0 z m 81,3 c 0.839,2.828 1.161,6.172 2,9 8.643,-4.357 22.658,-3.342 23,-16 -8.737,1.929 -16.5,4.833 -25,7 z m -76,10 c -1.59,-5.29 3.237,-11.284 -1,-13 -0.706,4.699 -6.169,11.696 1,13 z m 105,4 c 3.141,0.229 5.129,-4.421 7,-7 1.554,-2.142 6.542,-6.396 3,-7 -4.047,3.456 -14.623,5.146 -10,14 z m -100,-2 c 2.874,-1.396 5.08,2.726 6,0 -3.203,-2.31 2.129,-4.459 1,-8 -3.073,-0.261 -4.497,-2.17 -7,-3 -1.726,3.397 -0.696,7.329 0,11 z m 47,-6 c 0,2.667 0,5.333 0,8 9.386,1.052 14.493,-2.173 22,-3 -1.665,-2.668 0.269,-8.936 -4,-9 -5.495,1.839 -12.37,2.297 -18,4 z m -38,7 c 5.834,-0.167 9.588,1.745 16,1 0.01,-2.656 -0.378,-5.711 1,-7 -5.878,0.212 -10.717,-0.616 -15,-2 0.331,3.664 -1.11,5.557 -2,8 z m 21,-6 c 0.489,3.156 -1.802,3.531 -1,7 4.667,0 9.333,0 14,0 0,-2.667 0,-5.333 0,-8 -4.9,-0.233 -7.571,1.763 -13,1 z m 45,9 c -0.489,6.822 2.964,9.703 5,14 5.905,-4.429 12.982,-7.684 18,-13 -4.338,0.004 -1.756,-6.91 -4,-9 -5.188,3.812 -11.958,6.043 -19,8 z m -24,7 c -0.905,5.319 1.467,11.293 0,14 9.353,-0.314 16.47,-2.863 24,-5 -1.336,-5.33 -4.119,-9.215 -5,-15 -5.423,2.911 -11.821,4.846 -19,6 z m -57,8 c -0.332,-3.707 -3.082,-10.2 -5,-9 2.132,2.535 2.398,6.936 5,9 z m 10,4 c -1.697,-4.303 -2.688,-9.312 -7,-11 0.167,2.833 1.833,4.167 2,7 -1.278,0.055 -1.385,1.282 -3,1 0.003,-0.556 -0.81,-1.135 -1,0 2.372,1.629 5.784,2.217 9,3 z m 41,-11 c -2.933,2.4 -8.65,2.017 -14,2 0.535,4.131 1.465,7.869 2,12 5.104,-0.563 12.86,1.526 15,-2 -3.384,-1.616 1.96,-11.96 -3,-12 z m -37,12 c 3.469,-0.802 3.844,1.489 7,1 -0.533,-3.8 -3.123,-5.544 -3,-10 -3.1,1.317 -5.547,-2.964 -7,0 1.555,2.302 5.137,6.133 3,9 z m 12,1 c 2.004,0.408 7.417,2.477 9,0 -1.879,-2.454 -0.848,-7.818 -3,-10 -3.04,0.627 -8.614,-1.28 -10,1 1.567,2.767 3.106,5.561 4,9 z"
           id="path3363"
           inkscape:connector-curvature="0"
           style="fill-rule:evenodd" /></g></g></g><g
     id="g3365"
     transform="translate(0,-252)"><g
       id="g3367"><path
         d="m -129,-58 c 1.935,0 1.935,-3 0,-3 -1.935,0 -1.935,3 0,3 l 0,0 z"
         id="path3369"
         inkscape:connector-curvature="0"
         style="fill:#8c8c8c" /></g></g><g
     id="g4037"
     transform="matrix(2.0150632,0,0,2.0150632,114.6855,-1447.7037)"><path
       inkscape:transform-center-y="0.57099545"
       inkscape:transform-center-x="-0.57099607"
       transform="matrix(0.03002094,-0.03002094,0.03002094,0.03002094,-48.301105,720.9853)"
       d="m -2.9357407,-12.201786 c -9.8135683,16.9975998 -186.4577993,16.997599 -196.2713693,0 -9.81357,-16.9976 78.50855,-169.975994 98.13568,-169.975994 19.627141,0 107.949258,152.978395 98.1356893,169.975994 z"
       inkscape:randomized="0"
       inkscape:rounded="0.1"
       inkscape:flatsided="true"
       sodipodi:arg2="1.5707963"
       sodipodi:arg1="0.52359878"
       sodipodi:r2="56.658665"
       sodipodi:r1="113.31733"
       sodipodi:cy="-68.860451"
       sodipodi:cx="-101.07143"
       sodipodi:sides="3"
       id="path3057"
       style="color:#000000;fill:#000000;fill-opacity:1;fill-rule:nonzero;stroke:none;stroke-width:10;marker:none;visibility:visible;display:inline;overflow:visible;enable-background:accumulate"
       sodipodi:type="star" /><path
       inkscape:transform-center-y="0.43830765"
       inkscape:transform-center-x="-0.43831341"
       transform="matrix(0.02304498,-0.02304498,0.02304498,0.02304498,-49.353861,721.07493)"
       d="m -2.9357407,-12.201786 c -9.8135683,16.9975998 -186.4577993,16.997599 -196.2713693,0 -9.81357,-16.9976 78.50855,-169.975994 98.13568,-169.975994 19.627141,0 107.949258,152.978395 98.1356893,169.975994 z"
       inkscape:randomized="0"
       inkscape:rounded="0.1"
       inkscape:flatsided="true"
       sodipodi:arg2="1.5707963"
       sodipodi:arg1="0.52359878"
       sodipodi:r2="56.658665"
       sodipodi:r1="113.31733"
       sodipodi:cy="-68.860451"
       sodipodi:cx="-101.07143"
       sodipodi:sides="3"
       id="path3057-7"
       style="color:#000000;fill:url(#linearGradient3096);fill-opacity:1;fill-rule:nonzero;stroke:none;stroke-width:10;marker:none;visibility:visible;display:inline;overflow:visible;enable-background:accumulate"
       sodipodi:type="star" /><path
       transform="matrix(0.98525441,0.17109571,-0.17109571,0.98525441,-57.088782,717.15363)"
       d="m 5.598369,2.4097364 c 0,0.1747595 -0.2833375,0.31643 -0.632852,0.31643 -0.3495144,0 -0.6328519,-0.1416705 -0.6328519,-0.31643 0,-0.1747595 0.2833375,-0.31643 0.6328519,-0.31643 0.3495145,0 0.632852,0.1416705 0.632852,0.31643 z"
       sodipodi:ry="0.31643003"
       sodipodi:rx="0.63285196"
       sodipodi:cy="2.4097364"
       sodipodi:cx="4.965517"
       id="path3938"
       style="opacity:0.6;color:#000000;fill:#ffffff;fill-opacity:1;fill-rule:nonzero;stroke:none;stroke-width:0.1;marker:none;visibility:visible;display:inline;overflow:visible;enable-background:accumulate"
       sodipodi:type="arc" /><path
       sodipodi:nodetypes="ssss"
       inkscape:connector-curvature="0"
       id="path3057-5"
       d="M -0.35028451,-1.8599612 C 19.273257,-1.4842822 -168.70989,-2.9605556 -178.52346,-19.958155 c -9.81357,-16.9976 64.09683,-184.773845 58.06111,-166.097805 -28.30423,87.58041 -69.64434,180.5632445 120.11206549,184.1959988 z"
       inkscape:transform-center-y="0.25323576"
       inkscape:transform-center-x="-0.25323248"
       style="opacity:0.6;color:#000000;fill:url(#linearGradient3098);fill-opacity:1;fill-rule:nonzero;stroke:none;stroke-width:10;marker:none;visibility:visible;display:inline;overflow:visible;enable-background:accumulate"
       transform="matrix(0.01331411,-0.01331411,0.01331411,0.01331411,-51.304289,722.94275)" /><path
       clip-path="url(#clipPath4011)"
       transform="matrix(0.9894271,0.14503105,-0.14503105,0.9894271,-56.362001,717.52804)"
       d="m 6.7667344,2.774848 c 0,0.3226329 -0.4577049,0.5841785 -1.0223124,0.5841785 -0.5646076,0 -1.0223124,-0.2615456 -1.0223124,-0.5841785 0,-0.3226329 0.4577048,-0.5841785 1.0223124,-0.5841785 0.5646075,0 1.0223124,0.2615456 1.0223124,0.5841785 z"
       sodipodi:ry="0.58417851"
       sodipodi:rx="1.0223124"
       sodipodi:cy="2.774848"
       sodipodi:cx="5.744422"
       id="path3936"
       style="opacity:0.6;color:#000000;fill:#ffffff;fill-opacity:1;fill-rule:nonzero;stroke:none;stroke-width:0.1;marker:none;visibility:visible;display:inline;overflow:visible;enable-background:accumulate"
       sodipodi:type="arc" /><path
       transform="matrix(0.9894271,0.14503105,-0.14503105,0.9894271,-56.362001,717.52804)"
       d="m 6.7667344,2.774848 c 0,0.3226329 -0.4577049,0.5841785 -1.0223124,0.5841785 -0.5646076,0 -1.0223124,-0.2615456 -1.0223124,-0.5841785 0,-0.3226329 0.4577048,-0.5841785 1.0223124,-0.5841785 0.5646075,0 1.0223124,0.2615456 1.0223124,0.5841785 z"
       sodipodi:ry="0.58417851"
       sodipodi:rx="1.0223124"
       sodipodi:cy="2.774848"
       sodipodi:cx="5.744422"
       id="path3936-2"
       style="opacity:0.6;color:#000000;fill:#ffffff;fill-opacity:1;fill-rule:nonzero;stroke:none;stroke-width:0.1;marker:none;visibility:visible;display:inline;overflow:visible;enable-background:accumulate"
       sodipodi:type="arc" /><path
       clip-path="url(#clipPath4033)"
       transform="matrix(0.98525441,0.17109571,-0.17109571,0.98525441,-57.088782,717.15363)"
       d="m 5.598369,2.4097364 c 0,0.1747595 -0.2833375,0.31643 -0.632852,0.31643 -0.3495144,0 -0.6328519,-0.1416705 -0.6328519,-0.31643 0,-0.1747595 0.2833375,-0.31643 0.6328519,-0.31643 0.3495145,0 0.632852,0.1416705 0.632852,0.31643 z"
       sodipodi:ry="0.31643003"
       sodipodi:rx="0.63285196"
       sodipodi:cy="2.4097364"
       sodipodi:cx="4.965517"
       id="path3938-3"
       style="opacity:0.6;color:#000000;fill:#ffffff;fill-opacity:1;fill-rule:nonzero;stroke:none;stroke-width:0.1;marker:none;visibility:visible;display:inline;overflow:visible;enable-background:accumulate"
       sodipodi:type="arc" /></g></svg>